<?xml version="1.0" encoding="UTF-8" standalone="no"?>
<!-- Created with Inkscape (http://www.inkscape.org/) -->

<svg
     xmlns:dc="http://purl.org/dc/elements/1.1/"
     xmlns:cc="http://creativecommons.org/ns#"
     xmlns:rdf="http://www.w3.org/1999/02/22-rdf-syntax-ns#"
     xmlns:svg="http://www.w3.org/2000/svg"
     xmlns="http://www.w3.org/2000/svg"
     xmlns:sodipodi="http://sodipodi.sourceforge.net/DTD/sodipodi-0.dtd"
     xmlns:inkscape="http://www.inkscape.org/namespaces/inkscape"
     width="475.17117"
     height="288.34653"
     id="svg2"
     version="1.1"
     inkscape:version="0.48.5 r10040"
     sodipodi:docname="car20s.svg">
    <defs
         id="defs4" />
    <sodipodi:namedview
         id="base"
         pagecolor="#ffffff"
         bordercolor="#666666"
         borderopacity="1.0"
         inkscape:pageopacity="0.0"
         inkscape:pageshadow="2"
         inkscape:zoom="2.22"
         inkscape:cx="195.63707"
         inkscape:cy="174.35173"
         inkscape:document-units="px"
         inkscape:current-layer="layer1"
         showgrid="false"
         showguides="true"
         inkscape:guide-bbox="true"
         fit-margin-top="0"
         fit-margin-left="0"
         fit-margin-right="0"
         fit-margin-bottom="0" />
    <metadata
         id="metadata7">
        <rdf:RDF>
            <cc:Work
                 rdf:about="">
                <dc:format>image/svg+xml</dc:format>
                <dc:type
                     rdf:resource="http://purl.org/dc/dcmitype/StillImage" />
                <dc:title />
            </cc:Work>
        </rdf:RDF>
    </metadata>
    <g
         inkscape:label="Layer 1"
         inkscape:groupmode="layer"
         id="layer1"
         transform="translate(-522.57658,-110.66428)">
        <g
             id="g4267">
            <path
                 sodipodi:nodetypes="cccccccccccccccccccccc"
                 inkscape:connector-curvature="0"
                 id="path3917"
                 d="M 527.47748,321.02885 566.21622,321.2811 631.08108,357.76759 684.68468,365.6775 727.92793,366.12795 731.53153,362.92074 886.93694,365.8757 965.31532,336.59642 976.12613,345.60543 991.89189,350.56038 978.37838,329.38921 968.46847,308.21804 932.43243,289.29912 884.23423,292.00182 858.10811,324.43425 854.05405,343.80362 668.91892,342.45227 648.64865,322.182 616.21622,290.20002 582.88288,286.59642 545.04505,296.95678 529.72973,313.17299"
                 style="color:#000000;fill:#5d4b4b;fill-opacity:1;fill-rule:nonzero;stroke:none;stroke-width:1.11961722;marker:none;visibility:visible;display:inline;overflow:visible;enable-background:accumulate" />
            <path
                 sodipodi:nodetypes="ccccscccccc"
                 inkscape:connector-curvature="0"
                 id="path4270"
                 d="M 865.67568,227.13696 868.01802,200.86669 888.73874,186.45227 895.04505,146.36218 C 900.51473,138.36803 860.88888,124.3319 843.69369,122.54236 834.46018,121.58141 818.4126,133.35616 820.27027,136.45227 L 807.20721,157.62344 803.6036,175.19101 809.90991,213.9838 847.74775,214.3802 860.81081,231.94777"
                 style="fill:#b98546;fill-opacity:1;stroke:none" />
            <path
                 sodipodi:nodetypes="cccccccc"
                 inkscape:connector-curvature="0"
                 id="path4274"
                 d="M 878.88288,183.74957 863.56757,178.79462 858.61261,175.19101 810.41441,175.58741 801.40541,170.68651 C 802.83477,154.7221 805.27519,143.34069 817.62162,133.29912 L 872.57658,173.83966 881.58559,182.39822"
                 style="fill:#c0b387;fill-opacity:1;stroke:none" />
            <path
                 inkscape:connector-curvature="0"
                 id="use5807"
                 d="M 821.35202,141.07444 C 811.44292,138.99001 802.13536,152.59956 805.22764,162.96559 807.00322,171.92298 817.62589,175.00591 824.10529,168.57721 833.1486,160.92407 832.51901,143.43124 821.35202,141.07444 z"
                 style="color:#000000;fill:#8a865e;fill-opacity:1;fill-rule:nonzero;stroke:none;stroke-width:1.38643169;marker:none;visibility:visible;display:inline;overflow:visible;enable-background:accumulate" />
            <path
                 transform="matrix(0.59102827,0.18283328,-0.22909304,0.64604968,502.19106,-8.5424803)"
                 d="M 584.68466,93.803627 A 15.990991,17.567568 0 1 1 552.70267,93.803627 15.990991,17.567568 0 1 1 584.68466,93.803627 z"
                 sodipodi:ry="17.567568"
                 sodipodi:rx="15.990991"
                 sodipodi:cy="93.803627"
                 sodipodi:cx="568.69366"
                 id="path5805"
                 style="color:#000000;fill:#d2eae8;fill-opacity:1;fill-rule:nonzero;stroke:#6b6b6b;stroke-width:2.12990022;stroke-opacity:1;marker:none;visibility:visible;display:inline;overflow:visible;enable-background:accumulate"
                 sodipodi:type="arc" />
            <g
                 id="g7792">
                <path
                     sodipodi:nodetypes="ccsssc"
                     inkscape:connector-curvature="0"
                     id="use5786-6"
                     d="M 877.69087,180.83557 815.49017,137.1647 C 812.67227,135.66181 843.18407,95.171999 882.32767,117.22455 909.49517,132.53007 913.76717,158.38886 906.34047,177.36242 900.38757,192.57089 917.06927,206.42013 915.15577,206.89354 899.44987,210.77964 877.69087,203.31461 877.69087,180.83557 z"
                     style="color:#000000;fill:#4d4d4d;fill-opacity:1;fill-rule:nonzero;stroke:none;marker:none;visibility:visible;display:inline;overflow:visible;enable-background:accumulate" />
                <path
                     style="color:#000000;fill:#1a1a1a;fill-opacity:1;fill-rule:nonzero;stroke:none;stroke-width:1.11961722;marker:none;visibility:visible;display:inline;overflow:visible;enable-background:accumulate"
                     d="M 862.49293,116.4073 C 859.21815,116.89743 855.84714,117.10835 852.64093,117.88876 852.11754,118.60333 852.63961,120.23879 853.70173,119.7543 856.97718,119.29908 860.29589,119.04573 863.52324,118.30333 863.99916,117.61357 863.60681,115.90485 862.49293,116.4073 z M 863.7671,122.9184 C 860.39118,123.58765 856.82529,123.61933 853.52493,124.53398 853.03002,125.23348 853.55551,126.88452 854.58573,126.36294 857.86252,125.8953 861.20461,125.70095 864.42553,124.93026 864.79532,124.36722 864.63797,122.96005 863.7671,122.9184 z M 880.25822,123.43051 C 879.5601,123.3758 878.99658,124.22168 879.4352,124.82052 880.00781,128.02312 880.05502,131.3873 880.94714,134.48352 881.65645,134.93974 883.25846,134.45278 882.77,133.41663 882.36146,130.24639 882.07439,127.01228 881.41657,123.90604 881.05263,123.73102 880.69581,123.3992 880.25822,123.43051 z M 873.73493,124.30231 C 873.00479,124.29483 872.37764,125.03831 872.82631,125.73264 873.37301,128.93218 873.48678,132.24326 874.3019,135.36752 874.99843,135.88516 876.6507,135.37966 876.15525,134.33111 875.71253,131.04048 875.45722,127.61875 874.66161,124.43034 874.38045,124.2722 874.04386,124.31725 873.73493,124.30231 z M 843.22179,127.67979 C 839.9567,128.21417 836.50724,128.28295 833.36979,129.19173 832.87303,130.02742 833.47132,131.59515 834.65663,130.9698 837.86868,130.56344 841.17395,130.29972 844.29478,129.53923 844.74267,128.85336 844.35531,127.14235 843.22179,127.67979 z M 844.47158,134.18479 C 841.12125,134.87903 837.54094,134.83547 834.29037,135.79428 833.81595,136.56263 834.30605,138.17558 835.44108,137.61711 838.68987,137.13775 842.09542,136.98627 845.23364,136.1052 845.54117,135.50823 845.3765,134.10151 844.47158,134.18479 z M 866.49834,137.85491 C 863.16791,138.56197 859.66989,138.57117 856.3842,139.42781 855.877,140.10438 856.33544,141.77563 857.38403,141.30554 860.68224,140.87686 864.08887,140.6063 867.2848,139.84847 867.65366,139.2354 867.41532,137.75772 866.49834,137.85491 z M 849.77556,141.41528 C 849.04628,141.43546 848.5043,142.18211 848.92789,142.83951 849.47051,146.03798 849.56625,149.33485 850.36692,152.46829 851.15721,153.00172 852.80378,152.50661 852.23594,151.32174 851.81267,148.08349 851.52467,144.75409 850.79368,141.58598 850.4997,141.37626 850.11748,141.4249 849.77556,141.41528 z M 843.22788,142.32976 C 842.51367,142.30773 841.82582,143.0422 842.28877,143.75399 842.85856,146.95611 842.90516,150.32832 843.80706,153.41935 844.56105,153.87351 846.10914,153.40933 845.61522,152.30174 845.16959,149.02789 844.94634,145.62833 844.15456,142.45779 843.87106,142.30176 843.53891,142.34308 843.22788,142.32976 z M 867.4494,144.46964 C 864.10449,145.18801 860.50815,145.12346 857.2682,146.09742 856.79303,146.87868 857.2907,148.50092 858.45094,147.91446 861.68879,147.46194 865.02856,147.23965 868.18709,146.44492 868.5363,145.83752 868.35906,144.42487 867.4494,144.46964 z M 892.34764,144.64644 C 889.08142,145.14861 885.71972,145.30456 882.52613,146.09742 882.00934,146.78144 882.47814,148.41997 883.52597,147.97515 886.81526,147.53196 890.2429,147.30346 893.42674,146.4876 893.8874,145.78359 893.49008,144.0905 892.34764,144.64644 z M 893.28042,151.24289 C 889.99344,151.8033 886.58808,151.88819 883.40404,152.77922 882.93334,153.47873 883.42483,155.08723 884.46483,154.59598 887.73804,154.1368 891.07819,153.90979 894.29853,153.13891 894.8033,152.45005 894.38285,150.75803 893.28042,151.24289 z M 900.19997,158.94891 C 899.45267,158.8946 898.77877,159.67622 899.23038,160.36704 899.78422,163.56873 899.89542,166.89086 900.71208,170.00802 901.57523,170.56463 903.1618,169.89294 902.52961,168.6911 902.07133,165.4865 901.8873,162.17465 901.10226,159.06474 900.82274,158.9282 900.50829,158.93463 900.19997,158.94891 z M 878.59997,159.16229 C 875.26266,159.85354 871.75968,159.87408 868.47362,160.73519 867.95749,161.44021 868.46771,163.0764 869.52222,162.60073 872.79462,162.12686 876.17905,161.94918 879.37422,161.13756 879.72602,160.53475 879.53361,159.06225 878.59997,159.16229 z M 893.35968,159.86339 C 892.55558,159.9126 892.2792,160.84898 892.65311,161.47647 893.17361,164.60533 893.30976,167.82298 894.09127,170.88592 894.906,171.43899 896.52826,170.83419 895.90801,169.63472 895.51079,166.41736 895.2381,163.12544 894.50583,159.98532 894.15762,159.79969 893.73716,159.86808 893.35968,159.86339 z M 879.52664,165.77093 C 876.18375,166.45265 872.6803,166.48377 869.3759,167.33774 868.83802,168.10609 869.37105,169.77888 870.53479,169.18346 873.77858,168.77863 877.07851,168.47349 880.25822,167.77669 880.63043,167.17449 880.43901,165.71942 879.52664,165.77093 z M 896.43842,183.64596 C 893.16239,184.16153 889.80352,184.32444 886.59251,185.13961 886.05988,185.86199 886.6367,187.49281 887.65942,186.99296 890.92683,186.53902 894.25565,186.29089 897.47483,185.54808 897.97293,184.85639 897.55334,183.14116 896.43842,183.64596 z M 897.3468,190.24851 C 894.0695,190.79398 890.68706,190.92204 887.48871,191.76045 886.98575,192.46853 887.49386,194.09893 888.5434,193.6016 891.81021,193.13475 895.16588,192.94019 898.36493,192.17501 898.8745,191.4755 898.4731,189.77254 897.3468,190.24851 z"
                     id="path7707"
                     inkscape:connector-curvature="0" />
            </g>
            <g
                 transform="matrix(0.57318754,0.81942421,-0.81942421,0.57318754,525.11123,-337.48841)"
                 id="g4243">
                <rect
                     style="color:#000000;fill:#c9c09c;fill-opacity:1;fill-rule:nonzero;stroke:none;stroke-width:1.11961722;marker:none;visibility:visible;display:inline;overflow:visible;enable-background:accumulate"
                     id="rect4194-7"
                     width="35.07457"
                     height="13.285821"
                     x="-165.01714"
                     y="609.65576"
                     rx="1.3285823"
                     ry="3.321456"
                     transform="matrix(-0.01227854,-0.99992462,0.99992462,-0.01227854,0,0)" />
                <path
                     style="color:#000000;fill:#e6e6e6;fill-opacity:1;fill-rule:nonzero;stroke:none;stroke-width:1.11961722;marker:none;visibility:visible;display:inline;overflow:visible;enable-background:accumulate"
                     d="M 602.06728,110.16381 610.81886,127.52353 624.998,127.45305 635.12464,109.34716"
                     id="path4171-0"
                     inkscape:connector-curvature="0"
                     sodipodi:nodetypes="cccc" />
                <rect
                     rx="1.6478269"
                     ry="2.7533576"
                     y="110.35514"
                     x="595.09271"
                     height="5.5067153"
                     width="45.48003"
                     id="use4163-3"
                     style="color:#000000;fill:#999999;fill-opacity:1;fill-rule:nonzero;stroke:none;stroke-width:1.11961722;marker:none;visibility:visible;display:inline;overflow:visible;enable-background:accumulate"
                     transform="matrix(0.99999661,-0.0026031,0.00582741,0.99998302,0,0)" />
                <rect
                     style="color:#000000;fill:#e6e6e6;fill-opacity:1;fill-rule:nonzero;stroke:none;stroke-width:1.11961722;marker:none;visibility:visible;display:inline;overflow:visible;enable-background:accumulate"
                     id="rect4161-6"
                     width="49.083607"
                     height="5.5067306"
                     x="593.24518"
                     y="108.29289"
                     ry="2.7533653"
                     rx="1.7783914"
                     transform="matrix(0.99999709,-0.00241199,0.00628913,0.99998022,0,0)" />
            </g>
            <path
                 inkscape:connector-curvature="0"
                 id="path4268"
                 d="M 776.48649,255.06489 765.22523,242.90272 767.47748,229.38921 780.54054,224.43425 788.64865,228.93876 794.5045,221.2811 799.45946,228.03786 795.40541,232.54236 802.16216,238.84867 799.00901,245.60543 798.55856,251.01083 802.16216,260.47029"
                 style="fill:#b98546;fill-opacity:1;stroke:none" />
            <g
                 transform="translate(404.95495,-17.567568)"
                 id="g5877">
                <path
                     sodipodi:nodetypes="ccccc"
                     inkscape:connector-curvature="0"
                     id="use5873"
                     d="M 462.6875,236.78267 C 453.04342,237.52185 448.72309,245.39677 445.62669,252.19371 438.10588,262.17903 434.57843,270.77192 427.0625,280.76211 444.86601,278.8088 464.66707,272.21128 482.46875,270.23588 483.99487,252.27039 475.51021,236.30012 462.6875,236.78267 z"
                     style="fill:#c63737;fill-opacity:1;stroke:none" />
                <path
                     style="fill:#133e78;fill-opacity:1;stroke:none"
                     d="M 460.6875,240.78125 C 454.64702,241.81252 448.72309,243.04737 445.62669,248.93952 438.10588,257.59561 432.57843,272.24593 425.0625,280.90625 442.86601,279.21296 458.66707,273.49369 476.46875,271.78125 477.99487,256.20728 470.80751,240.36294 460.6875,240.78125 z"
                     id="path5869"
                     inkscape:connector-curvature="0"
                     sodipodi:nodetypes="ccccc" />
            </g>
            <g
                 id="g4122">
                <path
                     style="color:#000000;fill:#909090;fill-opacity:1;fill-rule:nonzero;stroke:none;stroke-width:0.99999994;marker:none;visibility:visible;display:inline;overflow:visible;enable-background:accumulate"
                     d="M 753.80652,210.85255 751.89142,222.28634 758.56338,213.58124"
                     id="path4069"
                     inkscape:connector-curvature="0" />
                <path
                     sodipodi:type="arc"
                     style="color:#000000;fill:#f5f5f5;fill-opacity:1;fill-rule:nonzero;stroke:#c6c6c6;stroke-width:0.20189348;stroke-linecap:butt;stroke-linejoin:miter;stroke-miterlimit:4;stroke-opacity:1;stroke-dasharray:none;stroke-dashoffset:0;marker:none;visibility:visible;display:inline;overflow:visible;enable-background:accumulate"
                     id="path4025"
                     sodipodi:cx="225"
                     sodipodi:cy="162.27209"
                     sodipodi:rx="6.0810809"
                     sodipodi:ry="47.297298"
                     d="M 231.08108,162.27209 A 6.0810809,47.297298 0 1 1 218.91892,162.27209 6.0810809,47.297298 0 1 1 231.08108,162.27209 z"
                     transform="matrix(0.88850781,0.43804639,-0.43804639,0.88850781,646.60619,-72.804045)" />
                <path
                     style="color:#000000;fill:#f5f5f5;fill-opacity:1;fill-rule:nonzero;stroke:#c6c6c6;stroke-width:0.2;stroke-miterlimit:4;stroke-opacity:1;stroke-dasharray:none;marker:none;visibility:visible;display:inline;overflow:visible;enable-background:accumulate"
                     d="M 798.968,125.8119 C 802.93224,127.76633 796.33651,149.24023 784.2402,173.77569 772.14389,198.31113 759.12662,216.61911 755.16238,214.66468 754.32582,214.25226 753.97493,212.92526 754.03108,210.92906 759.49296,207.1216 769.72979,191.68726 779.36294,172.14794 789.34811,151.8946 795.44489,133.79836 794.64454,127.74104 796.50685,126.0623 798.01451,125.34182 798.968,125.8119 z"
                     id="use4027"
                     inkscape:connector-curvature="0" />
            </g>
            <path
                 sodipodi:nodetypes="ccccccccccccccccccccccccccccc"
                 inkscape:connector-curvature="0"
                 id="path3058"
                 d="M 531.27928,319.92975 C 534.13213,313.77359 553.3994,293.09098 587.78378,293.35317 627.14223,295.90331 647.23826,346.15557 666.21622,350.56038 L 868.46847,352.16398 C 869.66967,327.83966 885.57218,297.12418 923.42342,296.05588 960.93446,297.26898 971.22941,324.19136 974.77477,333.44326 L 992.79279,352.81263 997.74775,351.01083 991.44144,339.29912 984.23423,323.53335 C 981.14358,311.07406 963.81949,296.22587 961.71171,293.80362 L 903.15315,252.81263 C 901.61742,242.74348 902.14285,244.01191 892.79279,241.55137 885.21979,242.11711 885.88159,241.81094 882.88288,248.30813 851.34184,257.9978 759.64816,260.42614 753.6036,244.25407 L 753.6036,219.02885 700.45045,219.4793 699.0991,235.69552 685.13514,236.59642 657.65766,257.31714 C 651.35423,262.21417 642.36141,264.99854 634.23423,265.42525 632.43243,265.42525 620.27027,265.42525 620.27027,265.42525 L 612.16216,271.73155 609.45946,271.73155 C 608.77195,267.18166 598.43498,255.20233 584.23423,255.51534 L 583.78378,282.54236 562.16216,287.04687 C 544.87651,293.18433 540.75478,297.64344 528.37838,310.01984 L 522.57658,321.92975"
                 style="fill:#e8d072;fill-opacity:1;stroke:none" />
            <g
                 id="g4151">
                <path
                     sodipodi:type="arc"
                     style="color:#000000;fill:#d5d5d5;fill-opacity:1;fill-rule:nonzero;stroke:none;stroke-width:2;marker:none;visibility:visible;display:inline;overflow:visible;enable-background:accumulate"
                     id="path3828"
                     sodipodi:cx="87.162163"
                     sodipodi:cy="351.68649"
                     sodipodi:rx="47.072071"
                     sodipodi:ry="47.072071"
                     d="M 134.23423,351.68649 A 47.072071,47.072071 0 1 1 40.090092,351.68649 47.072071,47.072071 0 1 1 134.23423,351.68649 z"
                     transform="matrix(1.0239234,0,0,1.0239234,496.78865,-9.2874265)" />
                <path
                     transform="matrix(0.5598086,0,0,0.5598086,537.46713,153.71027)"
                     d="M 134.23423,351.68649 A 47.072071,47.072071 0 1 1 40.090092,351.68649 47.072071,47.072071 0 1 1 134.23423,351.68649 z"
                     sodipodi:ry="47.072071"
                     sodipodi:rx="47.072071"
                     sodipodi:cy="351.68649"
                     sodipodi:cx="87.162163"
                     id="use3830"
                     style="color:#000000;fill:#5d4b4b;fill-opacity:1;fill-rule:nonzero;stroke:none;stroke-width:2;marker:none;visibility:visible;display:inline;overflow:visible;enable-background:accumulate"
                     sodipodi:type="arc" />
                <path
                     style="color:#000000;fill:#7fa5d3;fill-opacity:1;fill-rule:nonzero;stroke:none;stroke-width:2;marker:none;visibility:visible;display:inline;overflow:visible;enable-background:accumulate"
                     d="M 574.21403,345.13247 561.53229,341.30952 562.29185,339.53899 C 564.31943,334.81268 568.71684,329.74533 572.84886,327.37366 575.04984,326.11035 579.70378,324.20468 580.21308,324.35821 580.56833,324.4653 587.14801,348.11864 586.97874,348.68015 586.9331,348.83154 581.18898,347.23508 574.21403,345.13247 z"
                     id="path3840"
                     inkscape:connector-curvature="0" />
                <path
                     inkscape:connector-curvature="0"
                     id="use3842"
                     d="M 598.99832,354.99895 611.68006,358.82189 610.9205,360.59243 C 608.89293,365.31873 604.49551,370.38609 600.36349,372.75776 598.16251,374.02107 593.50857,375.92674 592.99927,375.77321 592.64402,375.66611 586.06435,352.01277 586.23361,351.45127 586.27925,351.29988 592.02337,352.89633 598.99832,354.99895 z"
                     style="color:#000000;fill:#7fa5d3;fill-opacity:1;fill-rule:nonzero;stroke:none;stroke-width:2;marker:none;visibility:visible;display:inline;overflow:visible;enable-background:accumulate" />
                <path
                     style="color:#000000;fill:#c8c4b7;fill-opacity:1;fill-rule:nonzero;stroke:none;stroke-width:2;marker:none;visibility:visible;display:inline;overflow:visible;enable-background:accumulate"
                     d="M 587.76136,347.57389 C 588.01476,345.86886 595.46755,325.73374 595.86322,325.68516 596.51277,325.60543 600.95035,328.5723 602.82546,330.33999 604.72532,332.13099 605.25306,331.37155 596.24298,339.8123 592.52548,343.29489 589.07664,346.59838 588.57889,347.15338 588.03523,347.75955 587.70881,347.92746 587.76136,347.57389 z"
                     id="path3846"
                     inkscape:connector-curvature="0"
                     inkscape:transform-center-x="-8.0102828"
                     inkscape:transform-center-y="-11.100631" />
                <path
                     style="color:#000000;fill:#c8c4b7;fill-opacity:1;fill-rule:nonzero;stroke:none;stroke-width:2;marker:none;visibility:visible;display:inline;overflow:visible;enable-background:accumulate"
                     d="M 575.65379,362.00774 C 579.59965,357.60033 582.60585,354.40572 582.33424,354.90862 582.06263,355.41152 579.68216,359.93694 577.04432,364.96509 L 572.24823,374.10721 570.86491,372.85529 C 570.10408,372.16674 569.13983,371.38051 568.72214,371.1081 568.30445,370.8357 568.07898,370.47971 568.2211,370.31703 568.36322,370.15434 571.70793,366.41516 575.65379,362.00774 z"
                     id="path3848"
                     inkscape:connector-curvature="0"
                     inkscape:transform-center-x="12.930282"
                     inkscape:transform-center-y="15.166625" />
                <path
                     style="color:#000000;fill:#978a53;fill-opacity:1;fill-rule:nonzero;stroke:none;stroke-width:2;marker:none;visibility:visible;display:inline;overflow:visible;enable-background:accumulate"
                     d="M 585.375,339.4375 C 575.86986,339.83908 570.92113,352.98002 577.9375,359.4375 584.24184,366.92406 597.86899,362.13743 598.28125,352.4375 599.21446,345.27267 592.59086,338.58915 585.375,339.4375 z"
                     id="use3877"
                     inkscape:connector-curvature="0" />
                <path
                     sodipodi:type="arc"
                     style="color:#000000;fill:#e8d072;fill-opacity:1;fill-rule:nonzero;stroke:none;stroke-width:2;marker:none;visibility:visible;display:inline;overflow:visible;enable-background:accumulate"
                     id="use3856"
                     sodipodi:cx="87.162163"
                     sodipodi:cy="351.68649"
                     sodipodi:rx="47.072071"
                     sodipodi:ry="47.072071"
                     d="M 134.23423,351.68649 A 47.072071,47.072071 0 1 1 40.090092,351.68649 47.072071,47.072071 0 1 1 134.23423,351.68649 z"
                     transform="matrix(0.20095691,0,0,0.20095691,568.97065,280.58924)" />
            </g>
            <g
                 id="g4141">
                <path
                     transform="matrix(1.0239234,0,0,1.0239234,836.78865,-9.2874265)"
                     d="M 134.23423,351.68649 A 47.072071,47.072071 0 1 1 40.090092,351.68649 47.072071,47.072071 0 1 1 134.23423,351.68649 z"
                     sodipodi:ry="47.072071"
                     sodipodi:rx="47.072071"
                     sodipodi:cy="351.68649"
                     sodipodi:cx="87.162163"
                     id="path3901"
                     style="color:#000000;fill:#d5d5d5;fill-opacity:1;fill-rule:nonzero;stroke:none;stroke-width:2;marker:none;visibility:visible;display:inline;overflow:visible;enable-background:accumulate"
                     sodipodi:type="arc" />
                <path
                     sodipodi:type="arc"
                     style="color:#000000;fill:#5d4b4b;fill-opacity:1;fill-rule:nonzero;stroke:none;stroke-width:2;marker:none;visibility:visible;display:inline;overflow:visible;enable-background:accumulate"
                     id="path3903"
                     sodipodi:cx="87.162163"
                     sodipodi:cy="351.68649"
                     sodipodi:rx="47.072071"
                     sodipodi:ry="47.072071"
                     d="M 134.23423,351.68649 A 47.072071,47.072071 0 1 1 40.090092,351.68649 47.072071,47.072071 0 1 1 134.23423,351.68649 z"
                     transform="matrix(0.5598086,0,0,0.5598086,877.46713,153.71027)" />
                <path
                     inkscape:connector-curvature="0"
                     id="path3905"
                     d="M 914.21403,345.13247 901.53229,341.30952 902.29185,339.53899 C 904.31943,334.81268 908.71684,329.74533 912.84886,327.37366 915.04984,326.11035 919.70378,324.20468 920.21308,324.35821 920.56833,324.4653 927.14801,348.11864 926.97874,348.68015 926.9331,348.83154 921.18898,347.23508 914.21403,345.13247 z"
                     style="color:#000000;fill:#7fa5d3;fill-opacity:1;fill-rule:nonzero;stroke:none;stroke-width:2;marker:none;visibility:visible;display:inline;overflow:visible;enable-background:accumulate" />
                <path
                     style="color:#000000;fill:#7fa5d3;fill-opacity:1;fill-rule:nonzero;stroke:none;stroke-width:2;marker:none;visibility:visible;display:inline;overflow:visible;enable-background:accumulate"
                     d="M 938.99832,354.99895 951.68006,358.82189 950.9205,360.59243 C 948.89293,365.31873 944.49551,370.38609 940.36349,372.75776 938.16251,374.02107 933.50857,375.92674 932.99927,375.77321 932.64402,375.66611 926.06435,352.01277 926.23361,351.45127 926.27925,351.29988 932.02337,352.89633 938.99832,354.99895 z"
                     id="path3907"
                     inkscape:connector-curvature="0" />
                <path
                     inkscape:transform-center-y="-11.100631"
                     inkscape:transform-center-x="-8.0102828"
                     inkscape:connector-curvature="0"
                     id="path3909"
                     d="M 927.76136,347.57389 C 928.01476,345.86886 935.46755,325.73374 935.86322,325.68516 936.51277,325.60543 940.95035,328.5723 942.82546,330.33999 944.72532,332.13099 945.25306,331.37155 936.24298,339.8123 932.52548,343.29489 929.07664,346.59838 928.57889,347.15338 928.03523,347.75955 927.70881,347.92746 927.76136,347.57389 z"
                     style="color:#000000;fill:#c8c4b7;fill-opacity:1;fill-rule:nonzero;stroke:none;stroke-width:2;marker:none;visibility:visible;display:inline;overflow:visible;enable-background:accumulate" />
                <path
                     inkscape:transform-center-y="15.166625"
                     inkscape:transform-center-x="12.930282"
                     inkscape:connector-curvature="0"
                     id="path3911"
                     d="M 915.65379,362.00774 C 919.59965,357.60033 922.60585,354.40572 922.33424,354.90862 922.06263,355.41152 919.68216,359.93694 917.04432,364.96509 L 912.24823,374.10721 910.86491,372.85529 C 910.10408,372.16674 909.13983,371.38051 908.72214,371.1081 908.30445,370.8357 908.07898,370.47971 908.2211,370.31703 908.36322,370.15434 911.70793,366.41516 915.65379,362.00774 z"
                     style="color:#000000;fill:#c8c4b7;fill-opacity:1;fill-rule:nonzero;stroke:none;stroke-width:2;marker:none;visibility:visible;display:inline;overflow:visible;enable-background:accumulate" />
                <path
                     inkscape:connector-curvature="0"
                     id="path3913"
                     d="M 925.375,339.4375 C 915.86986,339.83908 910.92113,352.98002 917.9375,359.4375 924.24184,366.92406 937.86899,362.13743 938.28125,352.4375 939.21446,345.27267 932.59086,338.58915 925.375,339.4375 z"
                     style="color:#000000;fill:#978a53;fill-opacity:1;fill-rule:nonzero;stroke:none;stroke-width:2;marker:none;visibility:visible;display:inline;overflow:visible;enable-background:accumulate" />
                <path
                     transform="matrix(0.20095691,0,0,0.20095691,908.97065,280.58924)"
                     d="M 134.23423,351.68649 A 47.072071,47.072071 0 1 1 40.090092,351.68649 47.072071,47.072071 0 1 1 134.23423,351.68649 z"
                     sodipodi:ry="47.072071"
                     sodipodi:rx="47.072071"
                     sodipodi:cy="351.68649"
                     sodipodi:cx="87.162163"
                     id="path3915"
                     style="color:#000000;fill:#e8d072;fill-opacity:1;fill-rule:nonzero;stroke:none;stroke-width:2;marker:none;visibility:visible;display:inline;overflow:visible;enable-background:accumulate"
                     sodipodi:type="arc" />
            </g>
            <g
                 transform="matrix(0.2008166,0,0,0.2008166,558.74036,256.15212)"
                 id="g3962">
                <rect
                     style="color:#000000;fill:#ab8f54;fill-opacity:1;fill-rule:nonzero;stroke:none;stroke-width:1.11961722;marker:none;visibility:visible;display:inline;overflow:visible;enable-background:accumulate"
                     id="rect3944"
                     width="36.079952"
                     height="369.81982"
                     x="662.53265"
                     y="-51.241421"
                     ry="6.7649808"
                     rx="15.784977" />
                <path
                     style="color:#000000;fill:#d9d3b9;fill-opacity:1;fill-rule:nonzero;stroke:none;stroke-width:1.11961722;marker:none;visibility:visible;display:inline;overflow:visible;enable-background:accumulate"
                     d="M 674.90625,-45.34375 C 668.32814,-44.234555 670.67704,-36.162642 670.03125,-31.53125 665.83833,78.512206 670.64987,188.66745 667.90625,298.71875 667.87385,306.43213 673.86539,314.87078 682.28125,313.53125 685.74732,312.8898 690.98928,312.37666 692.66577,309.68774 691.28606,191.56791 695.45756,73.384022 690.5,-44.6875 685.31987,-45.393976 680.08166,-45.096691 674.90625,-45.34375 z"
                     id="use3946"
                     inkscape:connector-curvature="0" />
            </g>
            <g
                 id="g4021">
                <rect
                     style="color:#000000;fill:#ab8f54;fill-opacity:1;fill-rule:nonzero;stroke:none;stroke-width:1.11961722;marker:none;visibility:visible;display:inline;overflow:visible;enable-background:accumulate"
                     id="rect3979"
                     width="10.810811"
                     height="29.729731"
                     x="575.67566"
                     y="254.16399"
                     rx="0"
                     ry="0" />
                <rect
                     ry="0"
                     rx="0"
                     y="253.93875"
                     x="574.57654"
                     height="29.504505"
                     width="8.1081085"
                     id="use3998"
                     style="color:#000000;fill:#e6decc;fill-opacity:1;fill-rule:nonzero;stroke:none;stroke-width:1.11961722;marker:none;visibility:visible;display:inline;overflow:visible;enable-background:accumulate" />
            </g>
            <path
                 inkscape:connector-curvature="0"
                 id="rect4092-2-7"
                 d="M 812.18021,147.63247 C 811.35548,148.4608 810.63106,149.44808 810.04182,150.52712 L 824.33251,156.75973 C 824.64651,155.5534 824.7611,154.304 824.6976,153.08275 L 812.18021,147.63247 z M 809.52026,151.57023 C 809.24534,152.19097 809.00024,152.84699 808.81616,153.5 L 823.18508,159.81085 C 823.37334,159.43166 823.54219,159.04619 823.68056,158.63734 823.79241,158.39396 823.87368,158.13226 823.96742,157.88108 L 809.52026,151.57023 z"
                 style="color:#000000;fill:#ffffff;fill-opacity:0.68560606;fill-rule:nonzero;stroke:none;stroke-width:1;marker:none;visibility:visible;display:inline;overflow:visible;enable-background:accumulate" />
        </g>
    </g>
</svg>
