<?xml version="1.0" encoding="UTF-8" standalone="no"?>
<!-- Created with Inkscape (http://www.inkscape.org/) -->

<svg
   xmlns:dc="http://purl.org/dc/elements/1.1/"
   xmlns:cc="http://creativecommons.org/ns#"
   xmlns:rdf="http://www.w3.org/1999/02/22-rdf-syntax-ns#"
   xmlns:svg="http://www.w3.org/2000/svg"
   xmlns="http://www.w3.org/2000/svg"
   xmlns:sodipodi="http://sodipodi.sourceforge.net/DTD/sodipodi-0.dtd"
   xmlns:inkscape="http://www.inkscape.org/namespaces/inkscape"
   version="1.1"
   id="svg79331"
   xml:space="preserve"
   width="800"
   height="800"
   viewBox="0 0 800 800"
   sodipodi:docname="scooter-silhouette-pattern-publicdomainvectors.org.svg"
   inkscape:version="0.92.4 (5da689c313, 2019-01-14)"><metadata
     id="metadata79337"><rdf:RDF><cc:Work
         rdf:about=""><dc:format>image/svg+xml</dc:format><dc:type
           rdf:resource="http://purl.org/dc/dcmitype/StillImage" /><dc:title></dc:title></cc:Work></rdf:RDF></metadata><defs
     id="defs79335"><clipPath
       clipPathUnits="userSpaceOnUse"
       id="clipPath79347"><path
         d="M 0,600 H 600 V 0 H 0 Z"
         id="path79345"
         inkscape:connector-curvature="0" /></clipPath></defs><sodipodi:namedview
     pagecolor="#ffffff"
     bordercolor="#666666"
     borderopacity="1"
     objecttolerance="10"
     gridtolerance="10"
     guidetolerance="10"
     inkscape:pageopacity="0"
     inkscape:pageshadow="2"
     inkscape:window-width="797"
     inkscape:window-height="480"
     id="namedview79333"
     showgrid="false"
     inkscape:zoom="0.295"
     inkscape:cx="400"
     inkscape:cy="400"
     inkscape:window-x="0"
     inkscape:window-y="0"
     inkscape:window-maximized="0"
     inkscape:current-layer="g79339" /><g
     id="g79339"
     inkscape:groupmode="layer"
     inkscape:label="scooter-silhouette-pattern-publicdomainvectors.org"
     transform="matrix(1.3333333,0,0,-1.3333333,0,800)"><g
       id="g79341"><g
         id="g79343"
         clip-path="url(#clipPath79347)"><path
           d="m 50.616,256.471 c 0,2.222 0.119,4.42 0.346,6.584 l -18.817,12.758 c -1.452,-6.208 -2.222,-12.679 -2.222,-19.342 0,-7.657 1.022,-15.074 2.936,-22.121 l 17.808,19.704 c -0.031,0.803 -0.051,1.607 -0.051,2.417"
           style="fill:#62234f;fill-opacity:1;fill-rule:nonzero;stroke:none"
           id="path79349"
           inkscape:connector-curvature="0" /><path
           d="m 59.573,223.935 c -5.299,8.869 -8.495,19.132 -8.906,30.119 L 32.859,234.35 c 3.992,-14.704 11.868,-27.806 22.459,-38.149 l 7.178,-0.183 z"
           style="fill:#612044;fill-opacity:1;fill-rule:nonzero;stroke:none"
           id="path79351"
           inkscape:connector-curvature="0" /><path
           d="m 33.348,320.759 -16.249,-25.345 7.372,-10.988 13.654,15.176 7.802,17.688 z"
           style="fill:#3f4090;fill-opacity:1;fill-rule:nonzero;stroke:none"
           id="path79353"
           inkscape:connector-curvature="0" /><path
           d="m 34.965,375.576 -1.069,-1.162 3.971,-2.84 5.3,4.624 z"
           style="fill:#26469f;fill-opacity:1;fill-rule:nonzero;stroke:none"
           id="path79355"
           inkscape:connector-curvature="0" /><path
           d="m 37.867,371.574 5.708,-4.083 -0.408,8.707 z"
           style="fill:#234fa9;fill-opacity:1;fill-rule:nonzero;stroke:none"
           id="path79357"
           inkscape:connector-curvature="0" /><path
           d="m 44.457,348.672 -12.107,-10.114 6.291,-9.543 -5.293,-8.256 12.579,-3.469 z"
           style="fill:#234fa9;fill-opacity:1;fill-rule:nonzero;stroke:none"
           id="path79359"
           inkscape:connector-curvature="0" /><path
           d="m 4.438,275.666 6.395,-6.399 13.638,15.159 -7.372,10.988 z"
           style="fill:#5d2654;fill-opacity:1;fill-rule:nonzero;stroke:none"
           id="path79361"
           inkscape:connector-curvature="0" /><path
           d="m 68.516,408.379 c -17.262,2.519 -33.898,4.663 -40.912,1.017 -7.378,-2.268 -7.739,-6.916 -7.224,-11.867 l 23.012,-12.794 -4.338,-4.714 4.113,-3.823 z"
           style="fill:#28419e;fill-opacity:1;fill-rule:nonzero;stroke:none"
           id="path79363"
           inkscape:connector-curvature="0" /><path
           d="m 39.054,380.021 -4.089,-4.445 8.202,0.622 z"
           style="fill:#293e9a;fill-opacity:1;fill-rule:nonzero;stroke:none"
           id="path79365"
           inkscape:connector-curvature="0" /><path
           d="m 55.318,196.201 c 0.736,-0.718 1.484,-1.424 2.245,-2.113 l 4.933,1.93 z"
           style="fill:#4c161d;fill-opacity:1;fill-rule:nonzero;stroke:none"
           id="path79367"
           inkscape:connector-curvature="0" /><path
           d="m 57.563,194.088 c 1.448,-1.315 2.943,-2.58 4.48,-3.792 l 0.453,5.722 z"
           style="fill:#4d1827;fill-opacity:1;fill-rule:nonzero;stroke:none"
           id="path79369"
           inkscape:connector-curvature="0" /><path
           d="m 53.276,274.565 -7.349,42.725 -7.802,-17.688 1.346,1.497 2.061,-1.855 c -4.236,-7.194 -7.43,-15.071 -9.387,-23.431 l 18.817,-12.758 c 0.416,3.955 1.201,7.804 2.314,11.51"
           style="fill:#5d3489;fill-opacity:1;fill-rule:nonzero;stroke:none"
           id="path79371"
           inkscape:connector-curvature="0" /><path
           d="m 83.891,271.127 c -1.044,-2.144 -1.859,-4.405 -2.426,-6.765 l 19.23,3.451 -54.768,49.477 7.349,-42.725 c 1.247,4.155 2.907,8.133 4.924,11.886 z"
           style="fill:#6a458a;fill-opacity:1;fill-rule:nonzero;stroke:none"
           id="path79373"
           inkscape:connector-curvature="0" /><path
           d="m 101.585,293.021 -18.261,11.225 -3.509,5.731 c 6.787,4.391 14.459,7.538 22.689,9.098 l 0.262,7.418 -56.839,-9.203 54.768,-49.477 z"
           style="fill:#5266a7;fill-opacity:1;fill-rule:nonzero;stroke:none"
           id="path79375"
           inkscape:connector-curvature="0" /><path
           d="m 105.528,391.616 -21.787,18.77 c -0.58,-1.217 -0.723,-2.595 -0.417,-4.139 -4.845,0.655 -9.852,1.409 -14.808,2.132 L 43.167,376.198 Z"
           style="fill:#1c60b6;fill-opacity:1;fill-rule:nonzero;stroke:none"
           id="path79377"
           inkscape:connector-curvature="0" /><path
           d="m 102.766,326.493 -59.599,49.705 0.408,-8.707 12.611,-9.019 -11.729,-9.8 1.47,-31.382 z"
           style="fill:#2966ba;fill-opacity:1;fill-rule:nonzero;stroke:none"
           id="path79379"
           inkscape:connector-curvature="0" /><path
           d="m 43.167,376.198 59.599,-49.705 2.762,65.123 z"
           style="fill:#186ebf;fill-opacity:1;fill-rule:nonzero;stroke:none"
           id="path79381"
           inkscape:connector-curvature="0" /><path
           d="m 59.573,223.935 2.923,-27.917 7.738,14.545 c -4.124,3.949 -7.715,8.444 -10.661,13.372"
           style="fill:#75235a;fill-opacity:1;fill-rule:nonzero;stroke:none"
           id="path79383"
           inkscape:connector-curvature="0" /><path
           d="m 80.536,256.471 c 0,-6.381 1.767,-12.354 4.839,-17.453 l 15.32,28.795 -19.23,-3.451 c -0.607,-2.529 -0.929,-5.167 -0.929,-7.891"
           style="fill:#75235a;fill-opacity:1;fill-rule:nonzero;stroke:none"
           id="path79385"
           inkscape:connector-curvature="0" /><path
           d="m 62.496,196.018 20.602,5.006 c -4.687,2.638 -9.008,5.847 -12.864,9.539 z"
           style="fill:#78224c;fill-opacity:1;fill-rule:nonzero;stroke:none"
           id="path79387"
           inkscape:connector-curvature="0" /><path
           d="m 114.384,222.625 c 2.938,0 5.804,0.388 8.53,1.117 l -22.219,44.071 -15.32,-28.795 c 5.917,-9.819 16.68,-16.393 29.009,-16.393"
           style="fill:#78224c;fill-opacity:1;fill-rule:nonzero;stroke:none"
           id="path79389"
           inkscape:connector-curvature="0" /><path
           d="m 62.043,190.296 c 3.79,-2.991 7.843,-5.664 12.12,-7.98 l -11.667,13.702 z"
           style="fill:#501c34;fill-opacity:1;fill-rule:nonzero;stroke:none"
           id="path79391"
           inkscape:connector-curvature="0" /><path
           d="m 386.748,548.854 -1.006,-3.555 9.098,0.199 c -2.331,3.067 -5.361,2.456 -8.092,3.356"
           style="fill:#443478;fill-opacity:1;fill-rule:nonzero;stroke:none"
           id="path79393"
           inkscape:connector-curvature="0" /><path
           d="m 114.384,192.853 c -11.366,0 -22.039,2.969 -31.286,8.171 l -20.602,-5.006 11.667,-13.702 c 11.233,-6.082 24.005,-9.692 37.583,-10.108 l 8.938,20.958 c -2.073,-0.205 -4.173,-0.313 -6.3,-0.313"
           style="fill:#6b1e34;fill-opacity:1;fill-rule:nonzero;stroke:none"
           id="path79395"
           inkscape:connector-curvature="0" /><path
           d="m 101.968,417.077 c -10.281,-0.673 -16.412,-2.883 -18.227,-6.691 l 21.787,-18.77 z"
           style="fill:#1a66ba;fill-opacity:1;fill-rule:nonzero;stroke:none"
           id="path79397"
           inkscape:connector-curvature="0" /><path
           d="m 105.528,391.616 -2.762,-65.123 49.245,44.643 z"
           style="fill:#2a8dd1;fill-opacity:1;fill-rule:nonzero;stroke:none"
           id="path79399"
           inkscape:connector-curvature="0" /><path
           d="m 120.684,193.166 -8.938,-20.958 c 0.876,-0.028 1.755,-0.042 2.638,-0.042 16.352,0 31.65,4.64 44.607,12.688 l -16.265,14.679 c -6.758,-3.384 -14.189,-5.592 -22.042,-6.367"
           style="fill:#7b1f2b;fill-opacity:1;fill-rule:nonzero;stroke:none"
           id="path79401"
           inkscape:connector-curvature="0" /><path
           d="m 122.914,223.742 c 1.246,0.332 2.463,0.737 3.646,1.207 l 7.711,-9.323 19.811,12.607 -53.387,39.58 z"
           style="fill:#8a234f;fill-opacity:1;fill-rule:nonzero;stroke:none"
           id="path79403"
           inkscape:connector-curvature="0" /><path
           d="m 100.695,267.813 53.387,-39.58 3.912,52.698 z"
           style="fill:#925268;fill-opacity:1;fill-rule:nonzero;stroke:none"
           id="path79405"
           inkscape:connector-curvature="0" /><path
           d="m 111.544,290.218 c -1.493,-0.161 -2.936,-0.317 -4.384,-0.625 l -5.575,3.428 -0.89,-25.208 57.299,13.118 -36.631,30.218 z"
           style="fill:#747aa0;fill-opacity:1;fill-rule:nonzero;stroke:none"
           id="path79407"
           inkscape:connector-curvature="0" /><path
           d="m 110.549,320.071 -7.783,6.422 -0.262,-7.418 c 2.628,0.497 5.313,0.834 8.045,0.996"
           style="fill:#747aa0;fill-opacity:1;fill-rule:nonzero;stroke:none"
           id="path79409"
           inkscape:connector-curvature="0" /><path
           d="m 149.412,407.965 -1.541,6.227 c -19.75,2.607 -35.111,3.591 -45.903,2.885 l 3.56,-25.461 z"
           style="fill:#137ac9;fill-opacity:1;fill-rule:nonzero;stroke:none"
           id="path79411"
           inkscape:connector-curvature="0" /><path
           d="m 152.011,371.136 -49.245,-44.643 68.345,3.682 z"
           style="fill:#55a0d8;fill-opacity:1;fill-rule:nonzero;stroke:none"
           id="path79413"
           inkscape:connector-curvature="0" /><path
           d="m 114.384,320.188 c 3.663,0 7.276,-0.309 10.784,-0.927 l -3.805,-8.112 36.631,-30.218 13.117,49.244 -68.345,-3.682 7.783,-6.422 c 1.269,0.077 2.547,0.117 3.835,0.117"
           style="fill:#769abb;fill-opacity:1;fill-rule:nonzero;stroke:none"
           id="path79415"
           inkscape:connector-curvature="0" /><path
           d="m 152.011,371.136 17.386,33.935 c -3.286,-0.467 -5.74,-2.318 -8.064,-4.394 l -10.32,0.824 -1.601,6.464 -43.884,-16.349 z"
           style="fill:#2191d5;fill-opacity:1;fill-rule:nonzero;stroke:none"
           id="path79417"
           inkscape:connector-curvature="0" /><path
           d="m 142.726,199.533 16.265,-14.679 c 3.361,2.088 6.565,4.406 9.588,6.93 l -8.251,20.746 c -5.069,-5.285 -11.014,-9.699 -17.602,-12.997"
           style="fill:#932133;fill-opacity:1;fill-rule:nonzero;stroke:none"
           id="path79419"
           inkscape:connector-curvature="0" /><path
           d="m 136.674,212.721 23.517,0.153 -6.109,15.359 -19.811,-12.607 z"
           style="fill:#932133;fill-opacity:1;fill-rule:nonzero;stroke:none"
           id="path79421"
           inkscape:connector-curvature="0" /><path
           d="m 154.082,228.233 6.109,-15.359 0.474,0.003 c -0.112,-0.116 -0.226,-0.231 -0.337,-0.347 l 8.251,-20.746 c 7.204,6.017 13.387,13.213 18.245,21.299 l 18.255,0.111 6.532,11.128 z"
           style="fill:#a72130;fill-opacity:1;fill-rule:nonzero;stroke:none"
           id="path79423"
           inkscape:connector-curvature="0" /><path
           d="m 154.082,228.233 51.546,38.661 -47.634,14.037 z"
           style="fill:#ab6160;fill-opacity:1;fill-rule:nonzero;stroke:none"
           id="path79425"
           inkscape:connector-curvature="0" /><path
           d="m 211.611,224.322 -5.983,42.572 -51.546,-38.661 z"
           style="fill:#b33a47;fill-opacity:1;fill-rule:nonzero;stroke:none"
           id="path79427"
           inkscape:connector-curvature="0" /><path
           d="m 215.523,355.488 -63.512,15.648 19.1,-40.961 z"
           style="fill:#76bfe4;fill-opacity:1;fill-rule:nonzero;stroke:none"
           id="path79429"
           inkscape:connector-curvature="0" /><path
           d="m 215.523,355.488 -28.347,44.664 c -3.351,1.035 -6.653,2.25 -9.9,3.674 -3.135,1.257 -5.691,1.558 -7.879,1.245 l -17.386,-33.935 z"
           style="fill:#58b2e0;fill-opacity:1;fill-rule:nonzero;stroke:none"
           id="path79431"
           inkscape:connector-curvature="0" /><path
           d="m 157.994,280.931 47.634,-14.037 -34.517,63.281 z"
           style="fill:#afa4a6;fill-opacity:1;fill-rule:nonzero;stroke:none"
           id="path79433"
           inkscape:connector-curvature="0" /><path
           d="m 171.111,330.175 34.517,-63.281 18.179,55.228 z"
           style="fill:#bfbfc2;fill-opacity:1;fill-rule:nonzero;stroke:none"
           id="path79435"
           inkscape:connector-curvature="0" /><path
           d="m 223.807,322.122 -8.284,33.366 -44.412,-25.313 z"
           style="fill:#a3cce0;fill-opacity:1;fill-rule:nonzero;stroke:none"
           id="path79437"
           inkscape:connector-curvature="0" /><path
           d="m 205.079,213.194 9.467,0.059 -2.935,11.069 z"
           style="fill:#ad2127;fill-opacity:1;fill-rule:nonzero;stroke:none"
           id="path79439"
           inkscape:connector-curvature="0" /><path
           d="m 210.608,395.684 c -8.018,0.723 -15.85,2.127 -23.432,4.468 l 28.347,-44.664 z"
           style="fill:#49afde;fill-opacity:1;fill-rule:nonzero;stroke:none"
           id="path79441"
           inkscape:connector-curvature="0" /><path
           d="m 283.177,361.01 -34.708,35.221 c -12.896,-1.166 -25.594,-1.653 -37.861,-0.547 l 4.915,-40.196 z"
           style="fill:#91ceea;fill-opacity:1;fill-rule:nonzero;stroke:none"
           id="path79443"
           inkscape:connector-curvature="0" /><path
           d="m 214.546,213.253 47.964,0.292 0.596,0.662 -51.495,10.115 z"
           style="fill:#c32128;fill-opacity:1;fill-rule:nonzero;stroke:none"
           id="path79445"
           inkscape:connector-curvature="0" /><path
           d="m 205.628,266.894 72.257,7.363 -54.078,47.865 z"
           style="fill:#d89c8c;fill-opacity:1;fill-rule:nonzero;stroke:none"
           id="path79447"
           inkscape:connector-curvature="0" /><path
           d="m 211.611,224.322 51.495,-10.115 0.019,0.022 -57.497,52.665 z"
           style="fill:#ca2f3c;fill-opacity:1;fill-rule:nonzero;stroke:none"
           id="path79449"
           inkscape:connector-curvature="0" /><path
           d="m 205.628,266.894 57.497,-52.665 0.055,0.059 14.705,59.969 z"
           style="fill:#db5448;fill-opacity:1;fill-rule:nonzero;stroke:none"
           id="path79451"
           inkscape:connector-curvature="0" /><path
           d="m 289.021,389.958 c -7.75,7.059 -16.488,9.157 -28.108,7.571 -4.163,-0.483 -8.314,-0.925 -12.444,-1.298 l 34.708,-35.221 z"
           style="fill:#7cc7e8;fill-opacity:1;fill-rule:nonzero;stroke:none"
           id="path79453"
           inkscape:connector-curvature="0" /><path
           d="m 223.807,322.122 54.078,-47.865 4.602,26.694 z"
           style="fill:#e7b3a1;fill-opacity:1;fill-rule:nonzero;stroke:none"
           id="path79455"
           inkscape:connector-curvature="0" /><path
           d="m 283.177,361.01 -67.654,-5.522 8.284,-33.366 z"
           style="fill:#c3e3f1;fill-opacity:1;fill-rule:nonzero;stroke:none"
           id="path79457"
           inkscape:connector-curvature="0" /><path
           d="m 282.487,300.951 0.69,60.059 -59.37,-38.888 z"
           style="fill:#e3dfdb;fill-opacity:1;fill-rule:nonzero;stroke:none"
           id="path79459"
           inkscape:connector-curvature="0" /><path
           d="m 282.487,300.951 21.715,9.34 c -0.362,0.118 -0.721,0.234 -1.085,0.355 l 1.649,13.618 c 4.731,1.13 7.717,3.241 9.404,6.093 l -30.993,30.653 z"
           style="fill:#f3dbd0;fill-opacity:1;fill-rule:nonzero;stroke:none"
           id="path79461"
           inkscape:connector-curvature="0" /><path
           d="m 277.885,274.257 -14.705,-59.969 6.45,7.152 25.423,-0.593 38.75,8.078 z"
           style="fill:#e83731;fill-opacity:1;fill-rule:nonzero;stroke:none"
           id="path79463"
           inkscape:connector-curvature="0" /><path
           d="m 295.053,220.847 36.336,-0.848 2.414,8.926 z"
           style="fill:#e21e25;fill-opacity:1;fill-rule:nonzero;stroke:none"
           id="path79465"
           inkscape:connector-curvature="0" /><path
           d="m 305.676,365.552 c -3.116,6.263 -6.62,12.138 -10.555,17.581 -1.986,2.654 -4.007,4.918 -6.1,6.825 l -5.844,-28.948 z"
           style="fill:#c3def2;fill-opacity:1;fill-rule:nonzero;stroke:none"
           id="path79467"
           inkscape:connector-curvature="0" /><path
           d="m 277.885,274.257 55.918,-45.332 1.61,39.35 z"
           style="fill:#f25635;fill-opacity:1;fill-rule:nonzero;stroke:none"
           id="path79469"
           inkscape:connector-curvature="0" /><path
           d="m 282.487,300.951 -4.602,-26.694 57.528,-5.982 z"
           style="fill:#f28c6d;fill-opacity:1;fill-rule:nonzero;stroke:none"
           id="path79471"
           inkscape:connector-curvature="0" /><path
           d="m 314.17,330.357 c 1.476,2.496 1.957,5.557 1.741,9.025 -2.822,9.312 -6.203,18.067 -10.235,26.17 l -22.499,-4.542 z"
           style="fill:#f4f2ef;fill-opacity:1;fill-rule:nonzero;stroke:none"
           id="path79473"
           inkscape:connector-curvature="0" /><path
           d="m 335.413,268.275 -6.925,34.94 c -7.413,1.829 -15.517,4.196 -24.286,7.076 l -21.715,-9.34 z"
           style="fill:#f7a884;fill-opacity:1;fill-rule:nonzero;stroke:none"
           id="path79475"
           inkscape:connector-curvature="0" /><path
           d="m 372.058,487.776 -5.224,-0.32 c -3.306,-1.054 -5.134,-3.666 -5.59,-6.633 l 10.298,0.768 z"
           style="fill:#4962ad;fill-opacity:1;fill-rule:nonzero;stroke:none"
           id="path79477"
           inkscape:connector-curvature="0" /><path
           d="m 331.389,219.999 37.769,-0.883 c 0.441,0.047 0.88,0.093 1.321,0.14 l -36.676,9.669 z"
           style="fill:#e21e25;fill-opacity:1;fill-rule:nonzero;stroke:none"
           id="path79479"
           inkscape:connector-curvature="0" /><path
           d="m 357.985,298.631 c -8.09,0.181 -17.957,1.734 -29.497,4.584 l 6.925,-34.94 z"
           style="fill:#f89c72;fill-opacity:1;fill-rule:nonzero;stroke:none"
           id="path79481"
           inkscape:connector-curvature="0" /><path
           d="m 361.244,480.823 c -0.567,-3.7 1.004,-7.951 4.525,-10.421 l 5.773,11.189 z"
           style="fill:#5b8abd;fill-opacity:1;fill-rule:nonzero;stroke:none"
           id="path79483"
           inkscape:connector-curvature="0" /><path
           d="m 385.81,249.175 -7.662,53.968 c -4.471,-3.245 -11.239,-4.714 -20.163,-4.512 l -22.572,-30.356 z"
           style="fill:#f35e32;fill-opacity:1;fill-rule:nonzero;stroke:none"
           id="path79485"
           inkscape:connector-curvature="0" /><path
           d="m 333.803,228.925 52.007,20.25 -50.397,19.1 z"
           style="fill:#ee2922;fill-opacity:1;fill-rule:nonzero;stroke:none"
           id="path79487"
           inkscape:connector-curvature="0" /><path
           d="m 333.803,228.925 36.676,-9.669 c 4.77,0.494 9.572,0.922 14.174,1.793 l 1.157,28.126 z"
           style="fill:#ec1c24;fill-opacity:1;fill-rule:nonzero;stroke:none"
           id="path79489"
           inkscape:connector-curvature="0" /><path
           d="m 365.769,470.402 c 2.064,-1.449 4.798,-2.285 8.165,-2.037 l -2.392,13.226 z"
           style="fill:#8d9fb6;fill-opacity:1;fill-rule:nonzero;stroke:none"
           id="path79491"
           inkscape:connector-curvature="0" /><path
           d="m 383.6,310.646 c -1.02,-3.119 -2.846,-5.611 -5.452,-7.503 l 7.662,-53.968 29.993,19.425 c 0.209,5.64 0.116,11.957 -0.318,19.035 0.901,1.419 1.808,2.799 2.72,4.14 l -33.076,23.478 z"
           style="fill:#f0411e;fill-opacity:1;fill-rule:nonzero;stroke:none"
           id="path79493"
           inkscape:connector-curvature="0" /><path
           d="m 426.917,285.592 c -1.434,-3.883 -2.59,-7.901 -3.443,-12.025 l 10.66,6.904 z"
           style="fill:#f0411e;fill-opacity:1;fill-rule:nonzero;stroke:none"
           id="path79495"
           inkscape:connector-curvature="0" /><path
           d="m 387.099,321.188 -1.97,-5.935 33.076,-23.478 c 4.851,7.129 9.86,13.165 15.01,18.246 l -0.233,7.499 z"
           style="fill:#f2562a;fill-opacity:1;fill-rule:nonzero;stroke:none"
           id="path79497"
           inkscape:connector-curvature="0" /><path
           d="m 433.544,299.464 c -2.611,-4.384 -4.835,-9.024 -6.627,-13.872 l 7.217,-5.121 z"
           style="fill:#f2562a;fill-opacity:1;fill-rule:nonzero;stroke:none"
           id="path79499"
           inkscape:connector-curvature="0" /><path
           d="m 402.995,381.012 c 0.312,-6.262 -0.809,-12.028 -1.953,-17.795 l -10.729,-32.339 58.547,34.505 z"
           style="fill:#f09278;fill-opacity:1;fill-rule:nonzero;stroke:none"
           id="path79501"
           inkscape:connector-curvature="0" /><path
           d="m 448.86,365.383 -58.547,-34.505 -3.214,-9.69 45.883,-3.668 z"
           style="fill:#f46c45;fill-opacity:1;fill-rule:nonzero;stroke:none"
           id="path79503"
           inkscape:connector-curvature="0" /><path
           d="m 386.754,461.533 c -1.173,-5.308 -1.72,-11.248 -0.83,-18.652 1.676,-8.895 3.64,-18.151 6.913,-28.977 l 30.711,-0.887 z"
           style="fill:#a99a9f;fill-opacity:1;fill-rule:nonzero;stroke:none"
           id="path79505"
           inkscape:connector-curvature="0" /><path
           d="m 373.934,468.365 c 0.006,0 0.013,0 0.021,0.002 l 7.036,0.763 -9.449,12.461 z"
           style="fill:#a99a9f;fill-opacity:1;fill-rule:nonzero;stroke:none"
           id="path79507"
           inkscape:connector-curvature="0" /><path
           d="m 435.302,447.569 c -4.521,4.404 -9.518,8.449 -15.067,12.079 l 0.721,8.719 c 18.37,-1.753 26.058,6.398 27.087,20.693 -0.022,0.714 -0.022,1.43 -0.008,2.149 l -76.493,-9.618 9.449,-12.461 8.185,0.89 c -0.909,-2.727 -1.764,-5.507 -2.422,-8.487 l 36.794,-48.516 z"
           style="fill:#8e6a86;fill-opacity:1;fill-rule:nonzero;stroke:none"
           id="path79509"
           inkscape:connector-curvature="0" /><path
           d="m 378.854,495.453 0.478,-5.14 5.243,5.87 z"
           style="fill:#583989;fill-opacity:1;fill-rule:nonzero;stroke:none"
           id="path79511"
           inkscape:connector-curvature="0" /><path
           d="m 398.719,522.54 c -0.102,13.869 -1.677,20.058 -3.879,22.958 l -9.098,-0.199 -9.36,-33.074 18.017,-5.044 14.335,16.048 c -3.34,-0.105 -6.679,-0.351 -10.015,-0.689"
           style="fill:#583989;fill-opacity:1;fill-rule:nonzero;stroke:none"
           id="path79513"
           inkscape:connector-curvature="0" /><path
           d="m 377.356,488.102 -5.298,-0.326 -0.516,-6.185 z"
           style="fill:#583989;fill-opacity:1;fill-rule:nonzero;stroke:none"
           id="path79515"
           inkscape:connector-curvature="0" /><path
           d="m 448.035,491.209 c 0.033,1.785 0.155,3.581 0.258,5.374 l -8.418,22.016 c -10.367,3.921 -20.761,4.959 -31.141,4.63 l -14.335,-16.048 1.898,-0.531 0.773,-8.873 -12.495,-1.594 -5.243,-5.87 0.192,-2.078 -2.168,-0.133 -5.814,-6.511 z"
           style="fill:#743a80;fill-opacity:1;fill-rule:nonzero;stroke:none"
           id="path79517"
           inkscape:connector-curvature="0" /><path
           d="m 423.548,413.017 -26.139,-12.813 c 1.328,-3.642 2.802,-7.461 4.457,-11.496 0.658,-2.664 1.006,-5.218 1.129,-7.696 l 45.865,-15.629 z"
           style="fill:#dc7e6a;fill-opacity:1;fill-rule:nonzero;stroke:none"
           id="path79519"
           inkscape:connector-curvature="0" /><path
           d="m 392.837,413.904 c 1.296,-4.293 2.802,-8.837 4.572,-13.7 l 26.139,12.813 z"
           style="fill:#ca9f90;fill-opacity:1;fill-rule:nonzero;stroke:none"
           id="path79521"
           inkscape:connector-curvature="0" /><path
           d="m 384.653,221.049 c 7.234,1.37 13.978,3.838 19.334,9.389 l -18.177,18.737 z"
           style="fill:#e81d25;fill-opacity:1;fill-rule:nonzero;stroke:none"
           id="path79523"
           inkscape:connector-curvature="0" /><path
           d="m 403.987,230.438 c 6.586,6.827 11.08,18.317 11.816,38.162 L 385.81,249.175 Z"
           style="fill:#ed1c24;fill-opacity:1;fill-rule:nonzero;stroke:none"
           id="path79525"
           inkscape:connector-curvature="0" /><path
           d="m 423.474,273.567 c -1.143,-5.522 -1.745,-11.239 -1.745,-17.096 0,-9.514 1.581,-18.657 4.492,-27.186 l 7.913,51.186 z"
           style="fill:#ed1c24;fill-opacity:1;fill-rule:nonzero;stroke:none"
           id="path79527"
           inkscape:connector-curvature="0" /><path
           d="m 488.604,173.998 c 5.675,-1.2 11.557,-1.832 17.586,-1.832 1.208,0 2.411,0.025 3.606,0.077 l -6.167,4.445 z"
           style="fill:#9b1e23;fill-opacity:1;fill-rule:nonzero;stroke:none"
           id="path79529"
           inkscape:connector-curvature="0" /><path
           d="m 499.606,223.269 13.457,38.562 -37.59,8.878 c -2.007,-4.336 -3.13,-9.159 -3.13,-14.238 0,-16.425 11.733,-30.135 27.263,-33.202"
           style="fill:#e11d25;fill-opacity:1;fill-rule:nonzero;stroke:none"
           id="path79531"
           inkscape:connector-curvature="0" /><path
           d="m 434.134,280.471 9.556,-11.572 c 0.592,2.998 1.396,5.92 2.393,8.748 z"
           style="fill:#e11d25;fill-opacity:1;fill-rule:nonzero;stroke:none"
           id="path79533"
           inkscape:connector-curvature="0" /><path
           d="m 440.098,518.517 c -0.075,0.027 -0.149,0.054 -0.223,0.082 l 8.418,-22.016 c 0.435,7.659 0.504,15.294 -8.195,21.934"
           style="fill:#69245a;fill-opacity:1;fill-rule:nonzero;stroke:none"
           id="path79535"
           inkscape:connector-curvature="0" /><path
           d="m 449.732,430.102 c -4.192,6.286 -8.961,12.14 -14.43,17.467 l -11.754,-34.552 z"
           style="fill:#953b57;fill-opacity:1;fill-rule:nonzero;stroke:none"
           id="path79537"
           inkscape:connector-curvature="0" /><path
           d="m 448.86,365.383 21.333,18.586 c -3.232,10.939 -7.078,21.424 -11.89,31.185 l -34.755,-2.137 z"
           style="fill:#cd4041;fill-opacity:1;fill-rule:nonzero;stroke:none"
           id="path79539"
           inkscape:connector-curvature="0" /><path
           d="m 458.303,415.154 c -2.565,5.201 -5.403,10.199 -8.571,14.948 l -26.184,-17.085 z"
           style="fill:#ad2d43;fill-opacity:1;fill-rule:nonzero;stroke:none"
           id="path79541"
           inkscape:connector-curvature="0" /><path
           d="m 442.474,256.471 c 0,4.255 0.42,8.409 1.216,12.428 l -9.556,11.572 -7.913,-51.186 c 2.34,-6.857 5.54,-13.317 9.474,-19.253 l 28.136,-1.096 c -13.102,11.646 -21.357,28.612 -21.357,47.535"
           style="fill:#e21d25;fill-opacity:1;fill-rule:nonzero;stroke:none"
           id="path79543"
           inkscape:connector-curvature="0" /><path
           d="m 463.831,208.936 -28.136,1.096 c 7.024,-10.596 16.381,-19.518 27.336,-26.034 l 18.235,13.9 c -6.421,2.727 -12.299,6.475 -17.435,11.038"
           style="fill:#cd1f26;fill-opacity:1;fill-rule:nonzero;stroke:none"
           id="path79545"
           inkscape:connector-curvature="0" /><path
           d="m 452.607,290.958 c 5.599,8.681 13.251,15.912 22.268,21.011 l -28.697,3.802 c -4.842,-4.886 -9.094,-10.362 -12.634,-16.307 l 0.59,-18.993 z"
           style="fill:#ed1d24;fill-opacity:1;fill-rule:nonzero;stroke:none"
           id="path79547"
           inkscape:connector-curvature="0" /><path
           d="m 433.215,310.021 c 2.401,2.369 4.833,4.533 7.292,6.502 l -7.525,0.997 z"
           style="fill:#ed1d24;fill-opacity:1;fill-rule:nonzero;stroke:none"
           id="path79549"
           inkscape:connector-curvature="0" /><path
           d="m 483.054,315.854 -34.194,49.529 -15.878,-47.863 7.525,-0.997 c 7.756,6.21 15.793,10.499 24.046,13.316 -6.76,-3.837 -12.941,-8.583 -18.375,-14.068 l 28.697,-3.802 c 2.617,1.48 5.348,2.782 8.179,3.885"
           style="fill:#ef3525;fill-opacity:1;fill-rule:nonzero;stroke:none"
           id="path79551"
           inkscape:connector-curvature="0" /><path
           d="m 498.581,193.305 c -6.074,0.722 -11.889,2.292 -17.315,4.593 l -18.235,-13.9 c 7.802,-4.64 16.416,-8.06 25.573,-10 l 15.025,2.69 z"
           style="fill:#bb2026;fill-opacity:1;fill-rule:nonzero;stroke:none"
           id="path79553"
           inkscape:connector-curvature="0" /><path
           d="m 452.607,290.958 -18.473,-10.487 11.949,-2.824 c 1.662,4.716 3.858,9.177 6.524,13.311"
           style="fill:#eb1c24;fill-opacity:1;fill-rule:nonzero;stroke:none"
           id="path79555"
           inkscape:connector-curvature="0" /><path
           d="m 498.142,289.449 c -10.076,-2.478 -18.388,-9.494 -22.669,-18.74 l 37.59,-8.878 z"
           style="fill:#eb1c24;fill-opacity:1;fill-rule:nonzero;stroke:none"
           id="path79557"
           inkscape:connector-curvature="0" /><path
           d="m 497.414,362.392 1.112,5.096 c -7.388,1.578 -15.686,3.068 -25.05,4.453 -1.025,4.06 -2.115,8.073 -3.283,12.028 L 448.86,365.383 Z"
           style="fill:#d71d2e;fill-opacity:1;fill-rule:nonzero;stroke:none"
           id="path79559"
           inkscape:connector-curvature="0" /><path
           d="m 497.414,362.392 -48.554,2.991 34.194,-49.529 c 1.716,0.669 3.468,1.264 5.253,1.786 z"
           style="fill:#ed2529;fill-opacity:1;fill-rule:nonzero;stroke:none"
           id="path79561"
           inkscape:connector-curvature="0" /><path
           d="m 504.581,320.169 34.024,18.75 -41.191,23.473 -9.107,-44.752 c 5.181,1.512 10.635,2.387 16.274,2.529"
           style="fill:#e61d25;fill-opacity:1;fill-rule:nonzero;stroke:none"
           id="path79563"
           inkscape:connector-curvature="0" /><path
           d="m 506.19,320.188 c 8.712,0 17.016,-1.751 24.581,-4.917 l 7.834,23.648 -34.024,-18.75 c 0.534,0.012 1.07,0.019 1.609,0.019"
           style="fill:#e61d25;fill-opacity:1;fill-rule:nonzero;stroke:none"
           id="path79565"
           inkscape:connector-curvature="0" /><path
           d="m 521.342,286.82 c -4.56,2.301 -9.706,3.602 -15.152,3.602 -2.773,0 -5.469,-0.339 -8.048,-0.973 l 14.921,-27.618 z"
           style="fill:#e61d25;fill-opacity:1;fill-rule:nonzero;stroke:none"
           id="path79567"
           inkscape:connector-curvature="0" /><path
           d="m 548.717,303.914 -10.112,35.005 -7.834,-23.648 c 6.624,-2.772 12.678,-6.634 17.946,-11.357"
           style="fill:#da1e25;fill-opacity:1;fill-rule:nonzero;stroke:none"
           id="path79569"
           inkscape:connector-curvature="0" /><path
           d="m 539.305,263.503 c -2.156,10.199 -8.899,18.74 -17.963,23.317 l -8.279,-24.989 z"
           style="fill:#da1e25;fill-opacity:1;fill-rule:nonzero;stroke:none"
           id="path79571"
           inkscape:connector-curvature="0" /><path
           d="m 510.746,364.592 c -3.775,0.994 -7.839,1.961 -12.22,2.896 l -1.112,-5.096 z"
           style="fill:#cc2027;fill-opacity:1;fill-rule:nonzero;stroke:none"
           id="path79573"
           inkscape:connector-curvature="0" /><path
           d="m 506.19,192.853 c -2.576,0 -5.114,0.157 -7.609,0.452 l 5.048,-16.617 61.211,32.215 -16.632,-0.269 C 536.99,198.807 522.289,192.853 506.19,192.853"
           style="fill:#b41f25;fill-opacity:1;fill-rule:nonzero;stroke:none"
           id="path79575"
           inkscape:connector-curvature="0" /><path
           d="m 499.606,223.269 c 2.131,-0.421 4.332,-0.644 6.584,-0.644 12.347,0 23.157,6.628 29.069,16.516 l -22.196,22.69 z"
           style="fill:#c61f26;fill-opacity:1;fill-rule:nonzero;stroke:none"
           id="path79577"
           inkscape:connector-curvature="0" /><path
           d="m 548.208,208.634 16.632,0.269 -8.332,8.518 c -2.485,-3.186 -5.265,-6.128 -8.3,-8.787"
           style="fill:#c61f26;fill-opacity:1;fill-rule:nonzero;stroke:none"
           id="path79579"
           inkscape:connector-curvature="0" /><path
           d="m 538.605,338.919 9.096,10.706 c -8.523,5.358 -19.796,10.449 -36.955,14.967 l -13.332,-2.2 z"
           style="fill:#d81f26;fill-opacity:1;fill-rule:nonzero;stroke:none"
           id="path79581"
           inkscape:connector-curvature="0" /><path
           d="m 556.508,217.421 8.332,-8.518 -1.652,19.093 c -1.88,-3.752 -4.123,-7.291 -6.68,-10.575"
           style="fill:#c42026;fill-opacity:1;fill-rule:nonzero;stroke:none"
           id="path79583"
           inkscape:connector-curvature="0" /><path
           d="m 535.259,239.141 c 3.033,5.071 4.779,11 4.779,17.33 0,2.411 -0.255,4.763 -0.733,7.032 l -26.242,-1.672 z"
           style="fill:#c42026;fill-opacity:1;fill-rule:nonzero;stroke:none"
           id="path79585"
           inkscape:connector-curvature="0" /><path
           d="m 503.629,176.688 6.167,-4.445 c 19.656,0.824 37.583,8.366 51.527,20.391 l 3.517,16.269 z"
           style="fill:#9b1e23;fill-opacity:1;fill-rule:nonzero;stroke:none"
           id="path79587"
           inkscape:connector-curvature="0" /><path
           d="m 569.265,265.519 20.675,1.553 c -1.091,8.717 -3.512,17.024 -7.055,24.706 l -15.339,-18.074 c 0.747,-2.661 1.322,-5.394 1.719,-8.185"
           style="fill:#b02026;fill-opacity:1;fill-rule:nonzero;stroke:none"
           id="path79589"
           inkscape:connector-curvature="0" /><path
           d="m 561.323,192.634 c 2.799,2.413 5.437,5.007 7.898,7.763 l -4.381,8.506 z"
           style="fill:#8e1d21;fill-opacity:1;fill-rule:nonzero;stroke:none"
           id="path79591"
           inkscape:connector-curvature="0" /><path
           d="m 548.717,303.914 c 8.883,-7.968 15.516,-18.394 18.829,-30.21 l 15.339,18.074 c -4.578,9.925 -11.03,18.812 -18.908,26.194 2.052,4.914 5.278,9.001 -2.881,21.07 l -22.491,-0.123 z"
           style="fill:#cd1f27;fill-opacity:1;fill-rule:nonzero;stroke:none"
           id="path79593"
           inkscape:connector-curvature="0" /><path
           d="m 561.096,339.042 c -0.235,0.347 -0.477,0.7 -0.732,1.062 -3.705,3.223 -7.722,6.417 -12.663,9.521 l -9.096,-10.706 z"
           style="fill:#c92027;fill-opacity:1;fill-rule:nonzero;stroke:none"
           id="path79595"
           inkscape:connector-curvature="0" /><path
           d="m 569.906,256.471 c 0,-10.243 -2.422,-19.91 -6.718,-28.475 l 1.652,-19.093 24.514,33.073 c 0.818,4.71 1.246,9.553 1.246,14.495 0,3.591 -0.226,7.127 -0.66,10.601 l -20.675,-1.553 c 0.42,-2.956 0.641,-5.976 0.641,-9.048"
           style="fill:#b41f25;fill-opacity:1;fill-rule:nonzero;stroke:none"
           id="path79597"
           inkscape:connector-curvature="0" /><path
           d="m 564.84,208.903 8.999,-2.863 c 7.774,10.387 13.208,22.625 15.515,35.936 z"
           style="fill:#901d22;fill-opacity:1;fill-rule:nonzero;stroke:none"
           id="path79599"
           inkscape:connector-curvature="0" /><path
           d="m 569.221,200.397 c 1.618,1.811 3.16,3.695 4.618,5.643 l -8.999,2.863 z"
           style="fill:#831b20;fill-opacity:1;fill-rule:nonzero;stroke:none"
           id="path79601"
           inkscape:connector-curvature="0" /></g></g></g></svg>